<svg width="883" height="497" viewBox="0 0 883 497" fill="none" xmlns="http://www.w3.org/2000/svg">
<g clip-path="url(#clip0_19_642)">
<rect width="883" height="497" fill="#0859CD"/>
<g opacity="0.56">
<path d="M548.3 335.355L548.298 335.355L528.256 340.567L492.91 273.196L514.003 267.405L514.06 267.51L514.499 267.271L532.815 257.292L536.781 297.265L536.801 297.471L536.962 297.602L569.165 323.988L548.3 335.355Z" stroke="url(#paint0_linear_19_642)"/>
<path d="M483.164 343.955L521.743 329.567L494.048 364.572L483.164 343.955Z" stroke="url(#paint1_linear_19_642)"/>
<path d="M416.22 301.471L486.976 262.923L522.579 328.272L451.823 366.821L416.22 301.471Z" stroke="url(#paint2_linear_19_642)"/>
<path d="M406.225 290.613L492.38 448.748" stroke="url(#paint3_linear_19_642)"/>
<path d="M392 296.644L419.032 281.917" stroke="url(#paint4_linear_19_642)"/>
<path d="M467.968 453.511L509.468 432.903" stroke="url(#paint5_linear_19_642)"/>
<path d="M463.881 292.677L476.073 300.44L476.251 300.553L476.456 300.505L490.525 297.188L486.909 311.182L486.856 311.387L486.966 311.567L494.468 323.922L480.041 324.807L479.831 324.82L479.693 324.98L470.261 335.933L464.961 322.486L464.883 322.29L464.689 322.208L451.357 316.623L462.508 307.426L462.671 307.292L462.688 307.082L463.881 292.677Z" stroke="url(#paint6_linear_19_642)"/>
</g>
<path opacity="0.56" d="M647.277 424.11L647.795 424.128V423.61V423.536C647.795 324.657 727.871 244.5 826.648 244.5C925.425 244.5 1005.5 324.657 1005.5 423.536C1005.5 522.415 925.425 602.571 826.648 602.571C796.195 602.571 767.521 594.953 742.422 581.517L741.965 581.272L741.737 581.738C723.946 618.234 686.515 643.375 643.219 643.375C609.171 643.375 578.751 627.828 558.655 603.436L558.428 603.16L558.092 603.287L557.319 603.58L557.013 603.696L556.997 604.023C554.377 657.747 510.033 700.5 455.714 700.5C429.253 700.5 405.159 690.355 387.103 673.737L386.808 673.465L386.479 673.694C362.176 690.594 332.654 700.5 300.819 700.5C217.801 700.5 150.5 633.131 150.5 550.027C150.5 466.922 217.801 399.554 300.819 399.554C365.575 399.554 420.769 440.543 441.918 498.019L442.056 498.394L442.452 498.342C446.792 497.775 451.219 497.482 455.714 497.482C486.559 497.482 514.187 511.267 532.786 533.02L533.654 534.036L533.666 532.7C534.206 472.594 583.048 424.036 643.219 424.036C644.578 424.036 645.93 424.06 647.277 424.11Z" stroke="url(#paint7_linear_19_642)"/>
<path opacity="0.56" d="M719.02 28.1226L719.538 28.1037V28.6223V28.6786C719.538 103.692 780.196 164.5 855.019 164.5C929.842 164.5 990.5 103.692 990.5 28.6786C990.5 -46.3347 929.842 -107.143 855.019 -107.143C831.951 -107.143 810.23 -101.363 791.219 -91.1704L790.76 -90.9247L790.533 -91.3923C777.064 -119.064 748.725 -138.125 715.948 -138.125C690.171 -138.125 667.141 -126.338 651.927 -107.844L651.699 -107.567L651.364 -107.694L650.777 -107.916L650.471 -108.032L650.455 -108.36C648.472 -149.09 614.903 -181.5 573.786 -181.5C553.755 -181.5 535.517 -173.809 521.848 -161.211L521.553 -160.939L521.223 -161.168C502.817 -173.987 480.458 -181.5 456.348 -181.5C393.472 -181.5 342.5 -130.402 342.5 -67.3661C342.5 -4.33047 393.472 46.7679 456.348 46.7679C505.392 46.7679 547.194 15.678 563.212 -27.9181L563.35 -28.2934L563.746 -28.2415C567.032 -27.8113 570.383 -27.5893 573.786 -27.5893C597.134 -27.5893 618.048 -38.0395 632.128 -54.5311L632.996 -55.5481L633.008 -54.2109C633.416 -8.63737 670.394 28.1786 715.948 28.1786C716.976 28.1786 718 28.1598 719.02 28.1226Z" stroke="url(#paint8_linear_19_642)"/>
<g opacity="0.3">
<path opacity="0.1" d="M6 -85V565" stroke="white"/>
<path opacity="0.1" d="M16 -85V565" stroke="white"/>
<path opacity="0.1" d="M26 -85V565" stroke="white"/>
<path opacity="0.1" d="M36 -85V565" stroke="white"/>
<path opacity="0.1" d="M46 -85V565" stroke="white"/>
<path opacity="0.1" d="M56 -85V565" stroke="white"/>
<path opacity="0.1" d="M66 -85V565" stroke="white"/>
<path opacity="0.1" d="M76 -85V565" stroke="white"/>
<path opacity="0.1" d="M86 -85V565" stroke="white"/>
<path opacity="0.1" d="M96 -85V565" stroke="white"/>
<path opacity="0.1" d="M106 -85V565" stroke="white"/>
<path opacity="0.1" d="M116 -85V565" stroke="white"/>
<path opacity="0.1" d="M126 -85V565" stroke="white"/>
<path opacity="0.1" d="M136 -85V565" stroke="white"/>
<path opacity="0.1" d="M146 -85V565" stroke="white"/>
<path opacity="0.1" d="M156 -85V565" stroke="white"/>
<path opacity="0.1" d="M166 -85V565" stroke="white"/>
<path opacity="0.1" d="M176 -85V565" stroke="white"/>
<path opacity="0.1" d="M186 -85V565" stroke="white"/>
<path opacity="0.1" d="M196 -85V565" stroke="white"/>
<path opacity="0.1" d="M206 -85V565" stroke="white"/>
<path opacity="0.1" d="M216 -85V565" stroke="white"/>
<path opacity="0.1" d="M226 -85V565" stroke="white"/>
<path opacity="0.1" d="M236 -85V565" stroke="white"/>
<path opacity="0.1" d="M246 -85V565" stroke="white"/>
<path opacity="0.1" d="M256 -85V565" stroke="white"/>
<path opacity="0.1" d="M266 -85V565" stroke="white"/>
<path opacity="0.1" d="M276 -85V565" stroke="white"/>
<path opacity="0.1" d="M286 -85V565" stroke="white"/>
<path opacity="0.1" d="M296 -85V565" stroke="white"/>
<path opacity="0.1" d="M306 -85V565" stroke="white"/>
<path opacity="0.1" d="M316 -85V565" stroke="white"/>
<path opacity="0.1" d="M326 -85V565" stroke="white"/>
<path opacity="0.1" d="M336 -85V565" stroke="white"/>
<path opacity="0.1" d="M346 -85V565" stroke="white"/>
<path opacity="0.1" d="M356 -85V565" stroke="white"/>
<path opacity="0.1" d="M366 -85V565" stroke="white"/>
<path opacity="0.1" d="M376 -85V565" stroke="white"/>
<path opacity="0.1" d="M386 -85V565" stroke="white"/>
<path opacity="0.1" d="M396 -85V565" stroke="white"/>
<path opacity="0.1" d="M406 -85V565" stroke="white"/>
<path opacity="0.1" d="M416 -85V565" stroke="white"/>
<path opacity="0.1" d="M426 -85V565" stroke="white"/>
<path opacity="0.1" d="M436 -85V565" stroke="white"/>
<path opacity="0.1" d="M446 -85V565" stroke="white"/>
<path opacity="0.1" d="M456 -85V565" stroke="white"/>
<path opacity="0.1" d="M466 -85V565" stroke="white"/>
<path opacity="0.1" d="M476 -85V565" stroke="white"/>
<path opacity="0.1" d="M486 -85V565" stroke="white"/>
<path opacity="0.1" d="M496 -85V565" stroke="white"/>
<path opacity="0.1" d="M506 -85V565" stroke="white"/>
<path opacity="0.1" d="M516 -85V565" stroke="white"/>
<path opacity="0.1" d="M526 -85V565" stroke="white"/>
<path opacity="0.1" d="M536 -85V565" stroke="white"/>
<path opacity="0.1" d="M546 -85V565" stroke="white"/>
<path opacity="0.1" d="M556 -85V565" stroke="white"/>
<path opacity="0.1" d="M566 -85V565" stroke="white"/>
<path opacity="0.1" d="M576 -85V565" stroke="white"/>
<path opacity="0.1" d="M586 -85V565" stroke="white"/>
<path opacity="0.1" d="M596 -85V565" stroke="white"/>
<path opacity="0.1" d="M606 -85V565" stroke="white"/>
<path opacity="0.1" d="M616 -85V565" stroke="white"/>
<path opacity="0.1" d="M626 -85V565" stroke="white"/>
<path opacity="0.1" d="M636 -85V565" stroke="white"/>
<path opacity="0.1" d="M646 -85V565" stroke="white"/>
<path opacity="0.1" d="M656 -85V565" stroke="white"/>
<path opacity="0.1" d="M666 -85V565" stroke="white"/>
<path opacity="0.1" d="M676 -85V565" stroke="white"/>
<path opacity="0.1" d="M686 -85V565" stroke="white"/>
<path opacity="0.1" d="M696 -85V565" stroke="white"/>
<path opacity="0.1" d="M706 -85V565" stroke="white"/>
<path opacity="0.1" d="M716 -85V565" stroke="white"/>
<path opacity="0.1" d="M726 -85V565" stroke="white"/>
<path opacity="0.1" d="M736 -85V565" stroke="white"/>
<path opacity="0.1" d="M746 -85V565" stroke="white"/>
<path opacity="0.1" d="M756 -85V565" stroke="white"/>
<path opacity="0.1" d="M766 -85V565" stroke="white"/>
<path opacity="0.1" d="M776 -85V565" stroke="white"/>
<path opacity="0.1" d="M786 -85V565" stroke="white"/>
<path opacity="0.1" d="M796 -85V565" stroke="white"/>
<path opacity="0.1" d="M806 -85V565" stroke="white"/>
<path opacity="0.1" d="M816 -85V565" stroke="white"/>
<path opacity="0.1" d="M826 -85V565" stroke="white"/>
<path opacity="0.1" d="M836 -85V565" stroke="white"/>
<path opacity="0.1" d="M846 -85V565" stroke="white"/>
<path opacity="0.1" d="M856 -85V565" stroke="white"/>
<path opacity="0.1" d="M866 -85V565" stroke="white"/>
<path opacity="0.1" d="M876 -85V565" stroke="white"/>
<path opacity="0.1" d="M893 9L-11 8.99997" stroke="white"/>
<path opacity="0.1" d="M893 19L-11 19" stroke="white"/>
<path opacity="0.1" d="M893 29L-11 29" stroke="white"/>
<path opacity="0.1" d="M893 39L-11 39" stroke="white"/>
<path opacity="0.1" d="M893 49L-11 49" stroke="white"/>
<path opacity="0.1" d="M893 59L-11 59" stroke="white"/>
<path opacity="0.1" d="M893 69.0003L-11 69.0002" stroke="white"/>
<path opacity="0.1" d="M893 79.0003L-11 79.0003" stroke="white"/>
<path opacity="0.1" d="M893 89.0003L-11 89.0003" stroke="white"/>
<path opacity="0.1" d="M893 99.0004L-11 99.0003" stroke="white"/>
<path opacity="0.1" d="M893 109L-11 109" stroke="white"/>
<path opacity="0.1" d="M893 119L-11 119" stroke="white"/>
<path opacity="0.1" d="M893 129L-11 129" stroke="white"/>
<path opacity="0.1" d="M893 139L-11 139" stroke="white"/>
<path opacity="0.1" d="M893 149.001L-11 149" stroke="white"/>
<path opacity="0.1" d="M893 159.001L-11 159.001" stroke="white"/>
<path opacity="0.1" d="M893 169.001L-11 169.001" stroke="white"/>
<path opacity="0.1" d="M893 179.001L-11 179.001" stroke="white"/>
<path opacity="0.1" d="M893 189.001L-11 189.001" stroke="white"/>
<path opacity="0.1" d="M893 199.001L-11 199.001" stroke="white"/>
<path opacity="0.1" d="M893 209.001L-11 209.001" stroke="white"/>
<path opacity="0.1" d="M893 219.001L-11 219.001" stroke="white"/>
<path opacity="0.1" d="M893 229.001L-11 229.001" stroke="white"/>
<path opacity="0.1" d="M893 239.001L-11 239.001" stroke="white"/>
<path opacity="0.1" d="M893 249.001L-11 249.001" stroke="white"/>
<path opacity="0.1" d="M893 259.001L-11 259.001" stroke="white"/>
<path opacity="0.1" d="M893 269.001L-11 269.001" stroke="white"/>
<path opacity="0.1" d="M893 279.001L-11 279.001" stroke="white"/>
<path opacity="0.1" d="M893 289.001L-11 289.001" stroke="white"/>
<path opacity="0.1" d="M893 299.001L-11 299.001" stroke="white"/>
<path opacity="0.1" d="M893 309.001L-11 309.001" stroke="white"/>
<path opacity="0.1" d="M893 319.001L-11 319.001" stroke="white"/>
<path opacity="0.1" d="M893 329.001L-11 329.001" stroke="white"/>
<path opacity="0.1" d="M893 339.001L-11 339.001" stroke="white"/>
<path opacity="0.1" d="M893 349.001L-11 349.001" stroke="white"/>
<path opacity="0.1" d="M893 359.001L-11 359.001" stroke="white"/>
<path opacity="0.1" d="M893 369.001L-11 369.001" stroke="white"/>
<path opacity="0.1" d="M893 379.001L-11 379.001" stroke="white"/>
<path opacity="0.1" d="M893 389.001L-11 389.001" stroke="white"/>
<path opacity="0.1" d="M893 399.001L-11 399.001" stroke="white"/>
<path opacity="0.1" d="M893 409.001L-11 409.001" stroke="white"/>
<path opacity="0.1" d="M893 419.001L-11 419.001" stroke="white"/>
<path opacity="0.1" d="M893 429.001L-11 429.001" stroke="white"/>
<path opacity="0.1" d="M893 439.001L-11 439.001" stroke="white"/>
<path opacity="0.1" d="M893 449.001L-11 449.001" stroke="white"/>
<path opacity="0.1" d="M893 459.001L-11 459.001" stroke="white"/>
<path opacity="0.1" d="M893 469.001L-11 469.001" stroke="white"/>
<path opacity="0.1" d="M893 479.001L-11 479.001" stroke="white"/>
<path opacity="0.1" d="M893 489.002L-11 489.001" stroke="white"/>
</g>
<path opacity="0.56" d="M746.675 482.325L747.41 482.593L747.344 481.813C747.029 478.078 746.868 474.299 746.868 470.481C746.868 397.037 806.333 337.5 879.684 337.5C953.036 337.5 1012.5 397.037 1012.5 470.481C1012.5 543.926 953.036 603.463 879.684 603.463C840.687 603.463 805.615 586.635 781.316 559.834L780.791 559.254L780.485 559.975C771.626 580.92 750.907 595.611 726.763 595.611C706.753 595.611 689.095 585.52 678.592 570.14L678.37 569.815L678.002 569.955L625.575 589.816L625.145 589.979L625.271 590.421C627.203 597.218 628.237 604.395 628.237 611.815C628.237 654.904 593.35 689.833 550.316 689.833C540.281 689.833 530.69 687.934 521.882 684.476L521.448 684.306L521.248 684.726C499.887 729.539 454.212 760.5 401.316 760.5C327.964 760.5 268.5 700.963 268.5 627.519C268.5 554.074 327.964 494.537 401.316 494.537C444.252 494.537 482.43 514.936 506.709 546.584L506.993 546.955L507.382 546.697C519.693 538.544 534.45 533.796 550.316 533.796C564.719 533.796 578.208 537.709 589.783 544.529L590.382 544.883L590.526 544.202C592.73 533.771 601.98 525.944 613.053 525.944C613.668 525.944 614.279 525.969 614.882 526.016L615.27 526.047L615.395 525.678C616.754 521.654 617.473 517.388 617.473 513.029L617.473 483.485C617.473 477.225 624.787 473.831 629.558 477.873L656.769 500.926C662.133 505.471 668.797 508.074 675.7 508.434L676.007 508.45L676.16 508.183C686.221 490.644 705.115 478.833 726.763 478.833C733.757 478.833 740.462 480.066 746.675 482.325Z" stroke="url(#paint9_linear_19_642)"/>
</g>
<defs>
<linearGradient id="paint0_linear_19_642" x1="514.102" y1="256.492" x2="513.882" y2="335.282" gradientUnits="userSpaceOnUse">
<stop stop-color="white"/>
<stop offset="1" stop-color="white" stop-opacity="0"/>
</linearGradient>
<linearGradient id="paint1_linear_19_642" x1="501.236" y1="333.453" x2="509.735" y2="349.113" gradientUnits="userSpaceOnUse">
<stop stop-color="white"/>
<stop offset="1" stop-color="white" stop-opacity="0"/>
</linearGradient>
<linearGradient id="paint2_linear_19_642" x1="451.358" y1="281.758" x2="477.314" y2="329.701" gradientUnits="userSpaceOnUse">
<stop stop-color="white"/>
<stop offset="1" stop-color="white" stop-opacity="0"/>
</linearGradient>
<linearGradient id="paint3_linear_19_642" x1="406.664" y1="290.374" x2="409.249" y2="406.021" gradientUnits="userSpaceOnUse">
<stop stop-color="white"/>
<stop offset="1" stop-color="white" stop-opacity="0"/>
</linearGradient>
<linearGradient id="paint4_linear_19_642" x1="405.516" y1="289.281" x2="405.862" y2="289.915" gradientUnits="userSpaceOnUse">
<stop stop-color="white"/>
<stop offset="1" stop-color="white" stop-opacity="0"/>
</linearGradient>
<linearGradient id="paint5_linear_19_642" x1="488.718" y1="443.207" x2="489.039" y2="443.855" gradientUnits="userSpaceOnUse">
<stop stop-color="white"/>
<stop offset="1" stop-color="white" stop-opacity="0"/>
</linearGradient>
<linearGradient id="paint6_linear_19_642" x1="463.451" y1="291.81" x2="478.756" y2="322.878" gradientUnits="userSpaceOnUse">
<stop stop-color="white"/>
<stop offset="1" stop-color="white" stop-opacity="0"/>
</linearGradient>
<linearGradient id="paint7_linear_19_642" x1="578" y1="244" x2="577.494" y2="574.355" gradientUnits="userSpaceOnUse">
<stop stop-color="white"/>
<stop offset="1" stop-color="white" stop-opacity="0"/>
</linearGradient>
<linearGradient id="paint8_linear_19_642" x1="666.5" y1="165" x2="666.116" y2="-85.8385" gradientUnits="userSpaceOnUse">
<stop stop-color="white"/>
<stop offset="1" stop-color="white" stop-opacity="0"/>
</linearGradient>
<linearGradient id="paint9_linear_19_642" x1="640.5" y1="337" x2="640" y2="643.5" gradientUnits="userSpaceOnUse">
<stop stop-color="white"/>
<stop offset="1" stop-color="white" stop-opacity="0"/>
</linearGradient>
<clipPath id="clip0_19_642">
<rect width="883" height="497" fill="white"/>
</clipPath>
</defs>
</svg>
