<svg xmlns="http://www.w3.org/2000/svg" width="108" height="24" fill="none" viewBox="0 0 108 24"><path fill="#fff" d="M23.1539 12.33C23.1539 14.3609 23.9266 15.7978 26.2249 15.7978C27.8694 15.7978 28.8006 14.7824 28.8006 14.7824L28.9393 15.2805C28.9988 15.4721 29.078 15.6062 29.296 15.6062H29.6724C29.8706 15.6062 30.0489 15.4338 30.0489 15.2422V8.30665C30.0489 8.11506 29.8706 7.94263 29.6724 7.94263H29.0582C28.8601 7.94263 28.6818 8.11506 28.6818 8.30665V13.4221C28.6818 13.4221 27.8298 14.5141 26.324 14.5141C25.2144 14.5141 24.5408 13.8053 24.5408 12.3492V8.30665C24.5408 8.11506 24.3625 7.94263 24.1643 7.94263H23.5303C23.3322 7.94263 23.1539 8.11506 23.1539 8.30665V12.33Z"/><path fill="#fff" fill-rule="evenodd" d="M44.0003 10.74C41.9596 10.74 40.8302 11.8321 40.8302 13.2882C40.8302 14.8209 41.8803 15.798 43.2672 15.798C44.4957 15.798 45.308 15.204 45.7241 14.8017L45.8826 15.319C45.942 15.4914 46.0015 15.6064 46.2194 15.6064H46.5959C46.794 15.6064 46.9723 15.434 46.9723 15.2424V10.9891C46.9723 8.74749 46.477 7.75122 44.456 7.75122C42.97 7.75122 41.8209 8.19188 41.702 8.24935C41.5237 8.32599 41.4048 8.44094 41.484 8.67085L41.6425 9.14982C41.702 9.32225 41.8209 9.41805 42.019 9.34141C42.3756 9.2073 43.3069 8.91992 44.3966 8.91992C45.5259 8.91992 45.7043 9.57132 45.6845 10.9891C45.6845 10.9891 44.8523 10.74 44.0003 10.74ZM43.4849 14.6485C42.6329 14.6485 42.098 14.0546 42.098 13.2883C42.098 12.292 42.8905 11.7555 44.0001 11.7555C44.8718 11.7555 45.4266 11.928 45.6644 12.0621V13.5756C45.3275 14.0546 44.4756 14.6485 43.4849 14.6485Z" clip-rule="evenodd"/><path fill="#fff" d="M48.8173 11.7938C48.8173 14.0928 50.6798 15.798 52.879 15.798C54.2263 15.798 55.3161 15.1083 55.9105 14.1886C56.0293 13.997 55.9699 13.7863 55.7718 13.6522L55.5538 13.4989C55.3359 13.3456 55.1972 13.3073 54.9594 13.5372C54.5037 13.9587 54.048 14.5335 52.8592 14.5335C51.3732 14.5335 50.2439 13.3073 50.2439 11.7746C50.2439 10.2419 51.393 9.05403 52.879 9.05403C53.6518 9.05403 54.3056 9.41805 54.7019 9.8587C54.8802 10.012 54.9792 10.2036 55.2764 9.93534L55.6529 9.6288C55.8312 9.49468 55.8708 9.26478 55.7322 9.09235C55.0189 8.21104 54.0876 7.75122 52.8989 7.75122C50.7392 7.75122 48.8173 9.533 48.8173 11.7938Z"/><path fill="#fff" fill-rule="evenodd" d="M60.987 10.74C58.9462 10.74 57.8169 11.8321 57.8169 13.2882C57.8169 14.8209 58.867 15.798 60.2539 15.798C61.4823 15.798 62.2947 15.204 62.7107 14.8017L62.8692 15.319C62.9287 15.4914 62.9881 15.6064 63.2061 15.6064H63.5825C63.7807 15.6064 63.959 15.434 63.959 15.2424V10.9891C63.959 8.74749 63.4636 7.75122 61.4427 7.75122C59.9567 7.75122 58.8076 8.19188 58.6887 8.24935C58.5104 8.32599 58.3915 8.44094 58.4707 8.67085L58.6292 9.14982C58.6887 9.32225 58.8076 9.41805 59.0057 9.34141C59.3623 9.2073 60.2935 8.91992 61.3833 8.91992C62.5126 8.91992 62.6909 9.57132 62.6711 10.9891C62.6711 10.9891 61.839 10.74 60.987 10.74ZM60.4711 14.6485C59.6191 14.6485 59.0841 14.0546 59.0841 13.2883C59.0841 12.292 59.8767 11.7555 60.9862 11.7555C61.858 11.7555 62.4128 11.928 62.6505 12.0621V13.5756C62.3137 14.0546 61.4617 14.6485 60.4711 14.6485Z" clip-rule="evenodd"/><path fill="#fff" fill-rule="evenodd" d="M69.6082 7.75097C67.2306 7.75097 65.804 9.5136 65.804 11.7552C65.804 13.9585 67.3891 15.7977 69.41 15.7977C70.896 15.7977 71.847 14.7823 71.847 14.7823L71.9659 15.2996C72.0055 15.472 72.1244 15.6061 72.3027 15.6061H72.7188C72.917 15.6061 73.0953 15.4337 73.0953 15.2421V4.36402C73.0953 4.17243 72.917 4 72.7188 4H72.1046C71.9065 4 71.7282 4.17243 71.7282 4.36402V8.24911C71.7282 8.24911 70.9158 7.75097 69.6082 7.75097ZM69.5482 14.5907C68.1019 14.5907 67.1904 13.2687 67.1904 11.7743C67.1904 10.2416 68.0622 9.03457 69.786 9.03457C70.8757 9.03457 71.7079 9.49439 71.7079 9.49439V13.3262C71.7079 13.3262 70.9748 14.5907 69.5482 14.5907Z" clip-rule="evenodd"/><path fill="#fff" fill-rule="evenodd" d="M78.8225 7.75122C76.4251 7.75122 74.9391 9.60964 74.9391 11.7746C74.9391 13.9779 76.4251 15.798 78.8225 15.798C80.1896 15.798 81.2595 15.2807 81.735 14.9167C82.0322 14.7059 81.9529 14.591 81.8143 14.4185C81.7548 14.3419 81.7003 14.2701 81.6459 14.1982C81.5914 14.1264 81.5369 14.0545 81.4774 13.9779C81.3329 13.7857 81.2213 13.8484 80.9923 13.9773C80.9702 13.9897 80.9471 14.0027 80.9227 14.0162C80.467 14.2844 79.7933 14.591 78.9612 14.591C77.5544 14.591 76.3854 13.3839 76.3062 12.1003H82.0124C82.1907 12.1003 82.3492 11.9662 82.369 11.7746C82.3888 11.6405 82.4087 11.3914 82.4087 11.2573C82.4087 9.24562 80.9029 7.75122 78.8225 7.75122ZM81.0406 11.0273H76.3251C76.4637 9.83949 77.494 8.91987 78.8215 8.91987C80.0301 8.91987 80.9811 9.91613 81.0406 11.0273Z" clip-rule="evenodd"/><path fill="#fff" d="M84.254 15.2424C84.254 15.434 84.4323 15.6064 84.6305 15.6064H85.2447C85.4428 15.6064 85.6211 15.434 85.6211 15.2424V10.1269C85.6211 10.1269 86.4731 9.03487 87.8798 9.03487C89.0885 9.03487 89.7621 9.74375 89.7621 11.1998V15.2424C89.7621 15.434 89.9404 15.6064 90.1386 15.6064H90.7726C90.9707 15.6064 91.149 15.434 91.149 15.2424V11.1998C91.149 10.7975 91.1094 10.4335 91.05 10.1078C91.3273 9.8587 92.1793 9.03487 93.4672 9.03487C94.6163 9.03487 95.2504 9.76291 95.2504 11.1998V15.2424C95.2504 15.434 95.4287 15.6064 95.6268 15.6064H96.2608C96.459 15.6064 96.6373 15.434 96.6373 15.2424V11.1998C96.6373 9.2073 95.8646 7.75122 93.5662 7.75122C91.9812 7.75122 90.7131 8.91992 90.6141 8.99655C90.0989 8.19188 89.247 7.75122 88.078 7.75122C86.4335 7.75122 85.5023 8.76664 85.5023 8.76664L85.3239 8.17272C85.2843 8.01945 85.1852 7.94281 85.0069 7.94281H84.6305C84.4323 7.94281 84.254 8.11524 84.254 8.30683V15.2424Z"/><path fill="#fff" d="M102.213 15.587L100.608 19.5211C100.47 19.7893 100.628 20 100.925 20H101.658C101.797 20 101.936 19.8851 101.995 19.7701L107.146 8.38328C107.285 8.13422 107.146 7.94263 106.849 7.94263H106.096C105.958 7.94263 105.819 8.03842 105.759 8.15338L102.986 14.016L100.033 8.15338C99.9739 8.03842 99.8551 7.94263 99.6966 7.94263H98.8248C98.5276 7.94263 98.4087 8.11506 98.5276 8.36412L102.213 15.587Z"/><path fill="#fff" d="M31.8926 15.2424C31.8926 15.434 32.0709 15.6064 32.269 15.6064H32.8832C33.0814 15.6064 33.2597 15.434 33.2597 15.2424V10.1269C33.2597 10.1269 34.3296 9.03487 35.8156 9.03487C36.9251 9.03487 37.5988 9.74375 37.5988 11.1998V15.2424C37.5988 15.434 37.7771 15.6064 37.9753 15.6064H38.6093C38.8074 15.6064 38.9857 15.434 38.9857 15.2424V11.1998C38.9857 9.2073 38.213 7.75122 35.9147 7.75122C34.2702 7.75122 33.1408 8.76664 33.1408 8.76664L32.9625 8.17272C32.9229 8.01945 32.8238 7.94281 32.6455 7.94281H32.269C32.0709 7.94281 31.8926 8.11524 31.8926 8.30683V15.2424Z"/><path fill="#fff" d="M0.101408 5.4904C0.837639 10.0072 4.88466 13.4615 9.76679 13.4615C14.5995 13.4615 18.6139 10.0768 19.4088 5.62719C19.5106 5.20943 19.5527 4.87578 19.5398 4.58992C19.5398 4.26242 19.297 4.00818 18.9602 4.00818H18.414H1.2114H0.581821C0.245358 4.00818 0.00261583 4.26204 0.00225101 4.58918C0.00150039 4.58915 0.000750057 4.58913 0 4.5891C0.00045915 4.59641 0.000926915 4.60373 0.00140329 4.61104C-0.00737819 4.86003 0.0249473 5.14534 0.101408 5.4904L0.101408 5.4904Z"/><path fill="#fff" d="M14.5708 19.245C14.2027 16.9866 12.1792 15.2594 9.73809 15.2594C7.32173 15.2594 5.31451 16.9518 4.91709 19.1766C4.8662 19.3854 4.84515 19.5523 4.85158 19.6952C4.85158 19.8589 4.97301 19.9861 5.14137 19.9861H5.41447H14.0158H14.3306C14.4988 19.9861 14.6202 19.8591 14.6204 19.6956C14.6207 19.6956 14.6211 19.6956 14.6215 19.6956C14.6213 19.692 14.621 19.6883 14.6208 19.6846C14.6252 19.5601 14.609 19.4175 14.5708 19.245Z"/></svg>